<svg width="58" height="58" viewBox="0 0 58 58" fill="none" xmlns="http://www.w3.org/2000/svg">
<path d="M36.25 36.25V41.0833H55.5833V36.25M36.1775 28.0575C35.8875 24.8433 32.8425 21.6775 29 21.75C24.8917 21.8225 21.75 24.8917 21.75 29C21.75 33.1083 24.8917 36.105 29 36.25C29.9183 36.25 30.8608 36.0567 31.755 35.6942C32.4075 33.0358 33.495 30.5225 36.1775 28.0575ZM31.4167 38.6667H16.9167C16.9167 37.3848 16.4074 36.1554 15.501 35.249C14.5946 34.3426 13.3652 33.8333 12.0833 33.8333V24.1667C14.7658 24.1667 16.9167 22.0158 16.9167 19.3333H41.0833C41.0833 20.6152 41.5926 21.8446 42.499 22.751C43.4054 23.6574 44.6348 24.1667 45.9167 24.1667V24.3117C47.5358 24.3117 49.155 24.6017 50.75 25.1333V14.5H7.25V43.5H32.19C31.6765 41.9403 31.4154 40.3087 31.4167 38.6667Z" fill="white"/>
</svg>
