<svg width="55" height="55" viewBox="0 0 55 55" fill="none" xmlns="http://www.w3.org/2000/svg">
<path d="M0.624971 25.9928C0.607249 19.4621 3.10881 13.1763 7.60894 8.44357C12.1091 3.71089 18.261 0.896048 24.7843 0.584973C31.3075 0.273897 37.6994 2.49056 42.6295 6.77354C47.5596 11.0565 50.6479 17.0758 51.2517 23.5785C50.0104 23.2431 48.7564 22.9565 47.4926 22.7194C46.7442 17.787 44.3196 13.263 40.6268 9.90864C40.2607 10.5611 39.7822 11.384 39.2348 12.2576C38.0096 14.2151 36.2515 16.7526 34.4933 18.0685C34.4332 18.1099 34.3784 18.1586 34.3302 18.2135C34.3302 18.3114 34.3665 18.5796 34.6383 19.1923C34.7543 19.4569 34.9211 19.7904 35.1096 20.171C35.4358 20.8308 35.8418 21.6428 36.208 22.5454C34.9945 22.7316 33.7954 23.0017 32.6192 23.3538C32.4307 22.9467 32.2349 22.5431 32.032 22.143C31.7815 21.6512 31.5434 21.1532 31.3178 20.6495C30.9988 19.9245 30.6508 18.982 30.7125 17.9815C30.785 16.8215 31.3722 15.879 32.3183 15.1685C33.4675 14.3058 34.9138 12.3301 36.1608 10.3328C36.7626 9.37939 37.2737 8.48402 37.6362 7.83152L37.7196 7.67927C34.2211 5.43357 30.1499 4.24303 25.9927 4.25002H25.8187C26.1486 4.90252 26.5111 5.68189 26.8373 6.54827C27.7218 8.89002 28.5193 12.3193 27.0947 15.3498C25.7861 18.141 23.5277 18.866 21.8385 19.301L21.5956 19.3626C19.9535 19.7868 19.2756 19.9608 18.7826 20.7039C18.3258 21.3999 18.4092 22.2735 18.9276 23.9664L19.0472 24.347C19.2538 25.0068 19.5003 25.7898 19.6272 26.5293C19.7867 27.45 19.8302 28.6028 19.2502 29.7193C18.7561 30.7169 17.9695 31.5401 16.9955 32.0791C16.2401 32.4626 15.427 32.7197 14.5885 32.8404L14.342 32.8839C13.0442 33.1123 12.3845 33.2283 11.7501 33.9061C11.2535 34.439 10.9453 35.3634 10.7677 36.7046C10.6952 37.252 10.6481 37.7958 10.6046 38.3576L10.5792 38.6549C10.5397 39.3003 10.4561 39.9422 10.3291 40.5761L10.2385 40.9749C12.481 43.3366 15.2248 45.165 18.2678 46.3254C17.5863 47.3404 16.9556 48.3916 16.3683 49.4719C11.7113 47.5612 7.72772 44.3086 4.92431 40.1277C2.12091 35.9468 0.624351 31.0266 0.624971 25.9928ZM4.24997 25.9928C4.24344 29.7726 5.22704 33.4883 7.10285 36.7699L7.1681 36.2261C7.36385 34.758 7.78072 32.844 9.0966 31.4339C10.601 29.8244 12.4425 29.5199 13.6206 29.3278L13.9541 29.2698C14.4066 29.2174 14.8474 29.0913 15.2591 28.8964C15.6003 28.6998 15.8705 28.4004 16.0312 28.0409C16.0856 27.943 16.1508 27.7146 16.053 27.1528C15.9407 26.5989 15.793 26.0528 15.6107 25.5179C15.5596 25.3561 15.5088 25.1942 15.4585 25.0321C14.9872 23.4915 14.2513 20.9903 15.7521 18.7101C17.0571 16.7273 19.156 16.2234 20.5153 15.8935L20.9286 15.792C22.3677 15.4186 23.2196 15.067 23.8105 13.8091C24.5826 12.1706 24.2455 9.95939 23.4443 7.82789C23.0229 6.71937 22.5011 5.65161 21.8856 4.63789C16.9227 5.59396 12.4478 8.24853 9.22949 12.1455C6.0112 16.0425 4.25054 20.9387 4.24997 25.9928ZM54.7281 28.6753C54.5662 28.412 54.3396 28.1946 54.07 28.0436C53.8003 27.8926 53.4965 27.813 53.1875 27.8125H53.1585C53.016 27.795 52.8745 27.7708 52.7343 27.74C52.3707 27.6537 52.0093 27.5582 51.6505 27.4536L51.3061 27.3594C50.2976 27.067 49.281 26.8034 48.2575 26.5691C44.7501 25.762 41.1285 25.5743 37.5565 26.0145C33.1992 26.5583 29.8678 28.0373 27.595 30.1543C25.3112 32.2894 24.1875 35.0009 24.1875 37.7668C24.1875 38.4301 24.2382 39.0609 24.3252 39.6518C28.1315 36.3313 32.8258 33.6451 38.0132 31.568C38.2343 31.4795 38.4707 31.4354 38.7089 31.4382C38.9471 31.441 39.1824 31.4907 39.4013 31.5844C39.6203 31.6782 39.8187 31.8141 39.9851 31.9845C40.1515 32.1549 40.2827 32.3565 40.3713 32.5776C40.4598 32.7987 40.504 33.0351 40.5011 33.2733C40.4983 33.5114 40.4486 33.7467 40.3549 33.9657C40.2611 34.1847 40.1252 34.383 39.9548 34.5494C39.7844 34.7159 39.5828 34.8471 39.3617 34.9356C36.4726 36.092 33.801 37.426 31.394 38.9304C25.4055 42.4249 21.6753 46.9126 18.9421 52.3791C18.8269 52.5928 18.7558 52.8274 18.7329 53.0691C18.7101 53.3107 18.7361 53.5545 18.8093 53.786C18.8825 54.0174 19.0014 54.2318 19.159 54.4164C19.3166 54.601 19.5097 54.752 19.7268 54.8606C19.944 54.9691 20.1807 55.033 20.4229 55.0483C20.6652 55.0636 20.908 55.0302 21.1371 54.9499C21.3662 54.8695 21.5768 54.744 21.7564 54.5808C21.936 54.4175 22.0811 54.2199 22.1828 53.9995C23.5748 51.2228 25.2387 48.7251 27.4318 46.503C28.0141 47.5642 28.7238 48.5503 29.5452 49.4393C31.2272 51.2518 33.9423 53.1875 37.7812 53.1875C40.1447 53.1875 42.1095 52.5858 43.719 51.5345C45.314 50.4978 46.4667 49.0876 47.3295 47.6086C48.6635 45.3249 49.4283 42.6061 49.9938 40.5906C50.1388 40.0831 50.2657 39.6228 50.389 39.224C51.0161 37.1795 51.9332 35.3453 52.7815 33.8445C53.2092 33.0978 53.6116 32.4416 53.9596 31.8834L54.0176 31.7891C54.2989 31.3492 54.5626 30.8981 54.8078 30.437C54.9456 30.1609 55.0106 29.8541 54.9967 29.5458C54.9827 29.2375 54.8903 28.9378 54.7281 28.6753Z" fill="white"/>
</svg>
