<svg width="54" height="55" viewBox="0 0 54 55" fill="none" xmlns="http://www.w3.org/2000/svg">
<path d="M16.2407 0.668945C12.4366 0.670871 9.31114 1.04821 6.20281 1.67953C4.27658 0.893468 2.3841 0.377359 1.5277 1.8132C0.649201 3.28586 1.49394 4.67378 2.9146 6.04029C-0.0786312 17.985 0.646255 34.7002 2.22324 45.6054C1.06472 46.7741 0.313322 47.9831 1.07095 49.139C2.0762 50.6726 3.85642 50.3914 5.8675 49.5915C11.2509 50.528 17.2355 50.7276 23.3542 50.4753C24.8183 45.1063 27.5137 39.7043 30.0776 35.7204C31.9028 33.1377 33.6394 30.6551 35.7457 28.6999C34.3898 20.0437 32.4084 11.8507 29.3926 5.23123C30.2694 4.1503 30.6418 3.04785 29.953 1.89318C29.1991 0.629297 27.6419 0.880441 25.9661 1.49409C22.6647 0.920203 19.3765 0.667246 16.2407 0.668945ZM14.388 8.66048C16.2464 10.7582 17.4076 12.8434 17.8348 14.5894L16.2913 17.9859L13.4223 15.3585C13.1856 13.616 13.5062 11.3019 14.388 8.66048ZM21.1619 13.2858C21.4026 15.1626 21.4175 16.8651 21.2438 18.3166L18.1167 22.5987L17.4443 19.2747L19.5024 14.7457C20.0055 14.2573 20.5582 13.7691 21.1619 13.2858ZM11.6412 16.0282L15.9373 19.8082L16.5927 23.0481L12.0966 20.3695C11.3289 19.0741 9.7646 16.3308 9.81751 15.4698C11.5413 15.9615 11.3544 15.9207 11.6412 16.0282ZM23.5052 19.6237C23.6595 22.2147 23.2965 24.2597 22.6091 25.7051L19.2528 28.2163L18.5417 24.7002L21.3596 20.8418C22.0101 20.4261 22.7258 20.0184 23.5052 19.6238V19.6237ZM10.7961 22.2251C11.3561 22.2667 11.8941 22.3246 12.4079 22.3974L17.0164 25.1431L17.7071 28.5578L14.1928 27.713C12.9315 26.6764 11.7197 24.8574 10.7961 22.2251ZM24.8479 26.8574C24.0693 31.2139 22.2968 33.6618 20.4573 34.1705L19.6001 29.9331L22.9925 27.3946C23.6033 27.1902 24.2223 27.0109 24.8479 26.8574ZM36.3397 30.9692C36.7321 30.8192 37.2428 30.7359 37.7727 30.7356C38.9533 30.7356 39.9103 31.1385 39.9104 31.6356C39.9107 32.1328 38.9536 32.5359 37.7728 32.5359C36.663 32.5355 35.7383 32.1778 35.644 31.7122C34.3612 33.14 33.0354 34.9153 31.7864 36.8335C31.3061 37.5709 30.839 38.3313 30.3876 39.1009C31.4268 39.1697 32.1927 39.5467 32.1933 39.9897C32.1932 40.4867 31.2359 40.8898 30.0552 40.8897C29.8368 40.8896 29.6186 40.8749 29.4021 40.8457C27.6621 44.0485 26.2801 47.2701 25.6404 49.6734C27.4331 50.1256 29.2698 50.4803 31.1285 50.7472L31.1283 50.7495C31.1283 51.2465 32.0855 51.6495 33.266 51.6495C33.6922 51.6492 34.1084 51.5953 34.4612 51.4947C34.4524 51.5269 34.4479 51.56 34.4476 51.5933C34.4476 52.0904 35.4048 52.4933 36.5852 52.4933C37.7659 52.4933 38.7229 52.0904 38.723 51.5933C38.7222 51.5124 38.6956 51.4321 38.6437 51.3543C40.1439 51.3857 41.6447 51.3669 43.1436 51.2978C43.1243 51.345 43.1142 51.3953 43.1138 51.4462C43.1138 51.9434 44.071 52.3464 45.2514 52.3464C46.432 52.3464 47.3892 51.9434 47.3893 51.4464C47.3886 51.2891 47.29 51.1347 47.1036 50.9986C47.9636 50.9083 48.8218 50.8012 49.6777 50.6773C50.0534 50.9646 50.7708 51.1431 51.5499 51.1432C52.7308 51.1432 53.688 50.7402 53.6878 50.243C53.6871 50.0856 53.5886 49.9312 53.402 49.7949C53.4078 48.5101 53.0139 46.7178 52.265 44.757C51.4876 42.7215 50.3685 40.4987 49.1048 38.365C48.8565 38.4039 48.6056 38.4235 48.3543 38.4234C47.1736 38.4234 46.2165 38.0203 46.2167 37.5232C46.2178 37.0782 46.9911 36.7004 48.036 36.6342C46.5195 34.2777 44.8819 32.1301 43.4428 30.5977C42.6813 29.7869 41.9719 29.1489 41.4042 28.7535C40.8364 28.3582 40.4075 28.2754 39.5402 28.5635C38.673 28.8517 37.3489 29.9345 36.3397 30.9692ZM13.9739 29.2881L18.0532 30.2685L18.8993 34.4512C17.052 34.486 14.6231 32.9388 12.3072 29.5276C12.883 29.4234 13.4385 29.3447 13.9739 29.2881ZM20.8226 35.6031C21.153 37.6364 21.5593 39.6243 22.0693 41.5619L20.5472 41.9942C20.018 39.9894 19.599 37.9416 19.2603 35.8574L20.8226 35.6031ZM35.7043 43.7835C36.885 43.7835 37.8422 44.1866 37.8419 44.6838C37.8419 45.1809 36.8848 45.5838 35.7043 45.5838C35.5773 45.5836 35.4503 45.5786 35.3237 45.5688C35.4619 45.6897 35.534 45.8223 35.5347 45.9566C35.5347 46.4537 34.5775 46.8567 33.3968 46.8567C32.2163 46.8567 31.2592 46.4537 31.2592 45.9566C31.2592 45.4596 32.2163 45.0566 33.3968 45.0566C33.5244 45.0568 33.6519 45.0618 33.7774 45.0716C33.6392 44.9506 33.567 44.818 33.5662 44.6838C33.566 44.1865 34.5235 43.7835 35.7043 43.7835ZM46.2859 45.5338C47.4666 45.5338 48.4238 45.9369 48.4235 46.4341C48.4235 46.9312 47.4664 47.3341 46.2859 47.3341C45.1052 47.3341 44.1481 46.9312 44.148 46.4341C44.1477 45.9368 45.105 45.5338 46.2859 45.5338ZM22.6334 51.7057C21.4525 51.7057 20.4954 52.1087 20.4956 52.6059C20.4956 53.103 21.4528 53.5059 22.6332 53.5059C22.7931 53.5057 22.9529 53.4978 23.1121 53.4821C23.2806 53.9175 24.1735 54.2373 25.2211 54.2374C26.402 54.2374 27.3592 53.8343 27.3591 53.3371C27.359 52.8401 26.4018 52.4371 25.2211 52.4371C25.0613 52.4374 24.9016 52.4454 24.7425 52.4609C24.574 52.0256 23.6811 51.7058 22.6332 51.7057H22.6334Z" fill="white"/>
</svg>
