<svg width="58" height="58" viewBox="0 0 58 58" fill="none" xmlns="http://www.w3.org/2000/svg">
<g clip-path="url(#clip0_108_84)">
<path d="M46.8557 17.1929C46.8557 13.0501 46.8557 8.90722 46.5657 6.17293C46.5679 5.50281 46.4075 4.84215 46.0982 4.24765C45.789 3.65314 45.3401 3.14252 44.7902 2.75959C44.2403 2.37667 43.6056 2.13286 42.9407 2.0491C42.2759 1.96533 41.6006 2.0441 40.9729 2.27865C32.0243 4.84722 13.7543 11.2686 6.09001 22.2886C-2.19571 33.9715 4.18429 47.3529 7.20858 52.5729C7.64922 53.3108 8.25052 53.9398 8.96778 54.4131C9.68503 54.8865 10.4998 55.1921 11.3514 55.3072C15.1661 55.9948 19.0622 56.1065 22.91 55.6386" stroke="white" stroke-width="4" stroke-linecap="round" stroke-linejoin="round"/>
<path d="M20.7143 35.5458C16.5437 41.6918 12.6994 48.053 9.19714 54.6029M44.2043 55.8044C43.7492 55.9689 43.2508 55.9689 42.7957 55.8044C39.3406 54.4357 36.376 52.0612 34.2857 48.9885C32.1954 45.9158 31.0756 42.2864 31.0714 38.5701V30.9058C31.0765 30.6428 31.1348 30.3836 31.2428 30.1437C31.3508 29.9039 31.5063 29.6884 31.6999 29.5103C31.8935 29.3322 32.1211 29.1951 32.3691 29.1075C32.6171 29.0198 32.8803 28.9832 33.1429 29.0001H53.8571C54.3593 29.0107 54.8379 29.2148 55.193 29.57C55.5481 29.9251 55.7523 30.4037 55.7629 30.9058V38.5701C55.7719 42.2673 54.6766 45.883 52.6172 48.9535C50.5578 52.0241 47.6284 54.4097 44.2043 55.8044Z" stroke="white" stroke-width="4" stroke-linecap="round" stroke-linejoin="round"/>
</g>
<defs>
<clipPath id="clip0_108_84">
<rect width="58" height="58" fill="white"/>
</clipPath>
</defs>
</svg>
