<svg width="332" height="428" viewBox="0 0 332 428" fill="none" xmlns="http://www.w3.org/2000/svg">
<path d="M-94.5625 200.443C-94.7015 149.211 -75.0772 99.8997 -39.7745 62.7727C-4.47175 25.6456 43.7894 3.56364 94.9631 1.12331C146.137 -1.31703 196.28 16.0723 234.956 49.6716C273.631 83.2708 297.859 130.491 302.596 181.504C292.858 178.872 283.02 176.624 273.106 174.764C267.235 136.071 248.214 100.581 219.245 74.2659C216.373 79.3847 212.619 85.84 208.325 92.6934C198.713 108.05 184.921 127.956 171.129 138.279C170.657 138.604 170.227 138.986 169.849 139.416C169.849 140.184 170.134 142.288 172.267 147.094C173.177 149.17 174.485 151.787 175.963 154.772C178.523 159.948 181.708 166.318 184.58 173.399C175.06 174.86 165.653 176.979 156.427 179.741C154.948 176.547 153.412 173.381 151.82 170.242C149.855 166.384 147.987 162.478 146.218 158.526C143.715 152.839 140.985 145.445 141.469 137.596C142.038 128.496 146.644 121.102 154.067 115.529C163.081 108.761 174.428 93.2621 184.21 77.5931C188.931 70.114 192.941 63.09 195.784 57.9712L196.438 56.7768C168.994 39.1597 137.056 29.8202 104.443 29.875H103.078C105.666 34.9937 108.51 41.1078 111.069 47.9043C118.008 66.275 124.264 93.1768 113.088 116.951C102.822 138.847 85.1056 144.535 71.8538 147.947L69.9484 148.431C57.0662 151.758 51.7484 153.123 47.8809 158.953C44.2978 164.413 44.9519 171.266 49.0184 184.547L49.9569 187.532C51.5778 192.708 53.5116 198.851 54.5069 204.652C55.7581 211.875 56.0994 220.918 51.5494 229.677C47.6731 237.503 41.5027 243.961 33.8612 248.19C27.9352 251.197 21.5567 253.215 14.9788 254.162L13.045 254.503C2.86437 256.294 -2.31126 257.204 -7.28782 262.522C-11.1838 266.702 -13.6009 273.954 -14.9944 284.476C-15.5631 288.77 -15.9328 293.036 -16.2741 297.443L-16.4731 299.775C-16.7835 304.838 -17.4391 309.874 -18.4353 314.847L-19.1462 317.975C-1.55412 336.502 19.971 350.846 43.8428 359.949C38.4966 367.912 33.5484 376.158 28.9416 384.633C-7.59233 369.644 -38.8427 344.127 -60.8349 311.329C-82.8271 278.531 -94.5674 239.932 -94.5625 200.443ZM-66.125 200.443C-66.1762 230.096 -58.4601 259.244 -43.7447 284.988L-43.2328 280.722C-41.6972 269.205 -38.4269 254.19 -28.1041 243.128C-16.3025 230.502 -1.85625 228.113 7.38594 226.606L10.0022 226.151C13.5518 225.74 17.0101 224.751 20.2397 223.222C22.916 221.679 25.0361 219.33 26.2969 216.51C26.7234 215.742 27.2353 213.951 26.4675 209.543C25.5866 205.198 24.4277 200.914 22.9981 196.718C22.5969 195.449 22.1988 194.178 21.8037 192.907C18.1069 180.821 12.3341 161.199 24.1072 143.312C34.3447 127.757 50.81 123.804 61.4741 121.216L64.7159 120.42C76.0056 117.491 82.6884 114.732 87.3237 104.865C93.3809 92.0109 90.7363 74.664 84.4516 57.9428C81.145 49.2466 77.052 40.8702 72.2234 32.9178C33.2907 40.418 -1.81468 61.2426 -27.0616 91.8139C-52.3084 122.385 -66.1206 160.795 -66.125 200.443ZM329.867 221.487C328.597 219.422 326.819 217.716 324.704 216.532C322.589 215.347 320.206 214.723 317.781 214.719H317.554C316.436 214.581 315.326 214.392 314.227 214.15C311.374 213.473 308.539 212.723 305.724 211.903L303.022 211.164C295.111 208.87 287.136 206.803 279.106 204.965C251.591 198.632 223.181 197.16 195.159 200.614C160.977 204.879 134.843 216.482 117.012 233.089C99.0969 249.839 90.2812 271.11 90.2812 292.808C90.2812 298.012 90.6794 302.96 91.3619 307.596C121.221 281.547 158.048 260.475 198.742 244.18C200.477 243.485 202.331 243.139 204.199 243.161C206.068 243.183 207.914 243.573 209.631 244.309C211.349 245.044 212.905 246.111 214.211 247.447C215.516 248.784 216.546 250.365 217.24 252.1C217.935 253.834 218.281 255.689 218.259 257.557C218.237 259.426 217.847 261.272 217.112 262.989C216.376 264.707 215.31 266.263 213.973 267.569C212.636 268.874 211.055 269.904 209.321 270.598C186.656 279.67 165.698 290.135 146.815 301.937C99.8362 329.35 70.5741 364.556 49.1322 407.44C48.2284 409.116 47.6704 410.956 47.4914 412.852C47.3125 414.748 47.5161 416.66 48.0903 418.476C48.6644 420.291 49.5975 421.973 50.834 423.421C52.0705 424.869 53.5852 426.055 55.2884 426.906C56.9916 427.758 58.8485 428.258 60.7489 428.379C62.6493 428.499 64.5545 428.236 66.3515 427.606C68.1485 426.976 69.8006 425.992 71.2099 424.711C72.6191 423.431 73.7568 421.88 74.5553 420.151C85.4753 398.368 98.5281 378.775 115.733 361.342C120.3 369.667 125.868 377.403 132.312 384.377C145.507 398.596 166.807 413.781 196.922 413.781C215.463 413.781 230.876 409.061 243.502 400.814C256.015 392.681 265.058 381.618 271.826 370.016C282.291 352.1 288.292 330.772 292.728 314.961C293.865 310.98 294.861 307.368 295.827 304.24C300.747 288.201 307.942 273.812 314.596 262.039C317.952 256.181 321.108 251.033 323.838 246.654L324.293 245.915C326.501 242.463 328.569 238.924 330.493 235.307C331.574 233.141 332.084 230.735 331.974 228.316C331.865 225.897 331.139 223.547 329.867 221.487Z" fill="#ABDE66"/>
</svg>
