<svg width="58" height="58" viewBox="0 0 58 58" fill="none" xmlns="http://www.w3.org/2000/svg">
<g clip-path="url(#clip0_113_228)">
<path d="M3.62497 28.9928C3.60725 22.4621 6.10881 16.1763 10.6089 11.4436C15.1091 6.71089 21.261 3.89605 27.7843 3.58497C34.3075 3.2739 40.6994 5.49056 45.6295 9.77354C50.5596 14.0565 53.6479 20.0758 54.2517 26.5785C53.0104 26.2431 51.7564 25.9565 50.4926 25.7194C49.7442 20.787 47.3196 16.263 43.6268 12.9086C43.2607 13.5611 42.7822 14.384 42.2348 15.2576C41.0096 17.2151 39.2515 19.7526 37.4933 21.0685C37.4332 21.1099 37.3784 21.1586 37.3302 21.2135C37.3302 21.3114 37.3665 21.5796 37.6383 22.1923C37.7543 22.4569 37.9211 22.7904 38.1096 23.171C38.4358 23.8308 38.8418 24.6428 39.208 25.5454C37.9945 25.7316 36.7954 26.0017 35.6192 26.3538C35.4307 25.9467 35.2349 25.5431 35.032 25.143C34.7815 24.6512 34.5434 24.1532 34.3178 23.6495C33.9988 22.9245 33.6508 21.982 33.7125 20.9815C33.785 19.8215 34.3722 18.879 35.3183 18.1685C36.4675 17.3058 37.9138 15.3301 39.1608 13.3328C39.7626 12.3794 40.2737 11.484 40.6362 10.8315L40.7196 10.6793C37.2211 8.43357 33.1499 7.24303 28.9927 7.25002H28.8187C29.1486 7.90252 29.5111 8.68189 29.8373 9.54827C30.7218 11.89 31.5193 15.3193 30.0947 18.3498C28.7861 21.141 26.5277 21.866 24.8385 22.301L24.5956 22.3626C22.9535 22.7868 22.2756 22.9608 21.7826 23.7039C21.3258 24.3999 21.4092 25.2735 21.9276 26.9664L22.0472 27.347C22.2538 28.0068 22.5003 28.7898 22.6272 29.5293C22.7867 30.45 22.8302 31.6028 22.2502 32.7193C21.7561 33.7169 20.9695 34.5401 19.9955 35.0791C19.2401 35.4626 18.427 35.7197 17.5885 35.8404L17.342 35.8839C16.0442 36.1123 15.3845 36.2283 14.7501 36.9061C14.2535 37.439 13.9453 38.3634 13.7677 39.7046C13.6952 40.252 13.6481 40.7958 13.6046 41.3576L13.5792 41.6549C13.5397 42.3003 13.4561 42.9422 13.3291 43.5761L13.2385 43.9749C15.481 46.3366 18.2248 48.165 21.2678 49.3254C20.5863 50.3404 19.9556 51.3916 19.3683 52.4719C14.7113 50.5612 10.7277 47.3086 7.92431 43.1277C5.12091 38.9468 3.62435 34.0266 3.62497 28.9928ZM7.24997 28.9928C7.24344 32.7726 8.22704 36.4883 10.1028 39.7699L10.1681 39.2261C10.3638 37.758 10.7807 35.844 12.0966 34.4339C13.601 32.8244 15.4425 32.5199 16.6206 32.3278L16.9541 32.2698C17.4066 32.2174 17.8474 32.0913 18.2591 31.8964C18.6003 31.6998 18.8705 31.4004 19.0312 31.0409C19.0856 30.943 19.1508 30.7146 19.053 30.1528C18.9407 29.5989 18.793 29.0528 18.6107 28.5179C18.5596 28.3561 18.5088 28.1942 18.4585 28.0321C17.9872 26.4915 17.2513 23.9903 18.7521 21.7101C20.0571 19.7273 22.156 19.2234 23.5153 18.8935L23.9286 18.792C25.3677 18.4186 26.2196 18.067 26.8105 16.8091C27.5826 15.1706 27.2455 12.9594 26.4443 10.8279C26.0229 9.71937 25.5011 8.65161 24.8856 7.63789C19.9227 8.59396 15.4478 11.2485 12.2295 15.1455C9.0112 19.0425 7.25054 23.9387 7.24997 28.9928ZM57.7281 31.6753C57.5662 31.412 57.3396 31.1946 57.07 31.0436C56.8003 30.8926 56.4965 30.813 56.1875 30.8125H56.1585C56.016 30.795 55.8745 30.7708 55.7343 30.74C55.3707 30.6537 55.0093 30.5582 54.6505 30.4536L54.3061 30.3594C53.2976 30.067 52.281 29.8034 51.2575 29.5691C47.7501 28.762 44.1285 28.5743 40.5565 29.0145C36.1992 29.5583 32.8678 31.0373 30.595 33.1543C28.3112 35.2894 27.1875 38.0009 27.1875 40.7668C27.1875 41.4301 27.2382 42.0609 27.3252 42.6518C31.1315 39.3313 35.8258 36.6451 41.0132 34.568C41.2343 34.4795 41.4707 34.4354 41.7089 34.4382C41.9471 34.441 42.1824 34.4907 42.4013 34.5844C42.6203 34.6782 42.8187 34.8141 42.9851 34.9845C43.1515 35.1549 43.2827 35.3565 43.3713 35.5776C43.4598 35.7987 43.504 36.0351 43.5011 36.2733C43.4983 36.5114 43.4486 36.7467 43.3549 36.9657C43.2611 37.1847 43.1252 37.383 42.9548 37.5494C42.7844 37.7159 42.5828 37.8471 42.3617 37.9356C39.4726 39.092 36.801 40.426 34.394 41.9304C28.4055 45.4249 24.6753 49.9126 21.9421 55.3791C21.8269 55.5928 21.7558 55.8274 21.7329 56.0691C21.7101 56.3107 21.7361 56.5545 21.8093 56.786C21.8825 57.0174 22.0014 57.2318 22.159 57.4164C22.3166 57.601 22.5097 57.752 22.7268 57.8606C22.944 57.9691 23.1807 58.033 23.4229 58.0483C23.6652 58.0636 23.908 58.0302 24.1371 57.9499C24.3662 57.8695 24.5768 57.744 24.7564 57.5808C24.936 57.4175 25.0811 57.2199 25.1828 56.9995C26.5748 54.2228 28.2387 51.7251 30.4318 49.503C31.0141 50.5642 31.7238 51.5503 32.5452 52.4393C34.2272 54.2518 36.9423 56.1875 40.7812 56.1875C43.1447 56.1875 45.1095 55.5858 46.719 54.5345C48.314 53.4978 49.4667 52.0876 50.3295 50.6086C51.6635 48.3249 52.4283 45.6061 52.9938 43.5906C53.1388 43.0831 53.2657 42.6228 53.389 42.224C54.0161 40.1795 54.9332 38.3453 55.7815 36.8445C56.2092 36.0978 56.6116 35.4416 56.9596 34.8834L57.0176 34.7891C57.2989 34.3492 57.5626 33.8981 57.8078 33.437C57.9456 33.1609 58.0106 32.8541 57.9967 32.5458C57.9827 32.2375 57.8903 31.9378 57.7281 31.6753Z" fill="#ABDE66"/>
</g>
<defs>
<clipPath id="clip0_113_228">
<rect width="58" height="58" fill="white"/>
</clipPath>
</defs>
</svg>
