<svg width="58" height="58" viewBox="0 0 58 58" fill="none" xmlns="http://www.w3.org/2000/svg">
<path d="M18.2407 2.66888C14.4366 2.67081 11.3111 3.04815 8.2028 3.67947C6.27657 2.89341 4.38409 2.3773 3.52768 3.81314C2.64919 5.28579 3.49392 6.67372 4.91458 8.04023C1.92135 19.9849 2.64624 36.7002 4.22323 47.6053C3.0647 48.774 2.31331 49.9831 3.07093 51.139C4.07619 52.6726 5.8564 52.3913 7.86749 51.5914C13.2508 52.5279 19.2355 52.7275 25.3541 52.4753C26.8183 47.1063 29.5137 41.7042 32.0776 37.7204C33.9028 35.1377 35.6394 32.655 37.7456 30.6999C36.3898 22.0436 34.4084 13.8506 31.3926 7.23117C32.2694 6.15024 32.6418 5.04779 31.953 3.89311C31.1991 2.62924 29.6418 2.88038 27.9661 3.49402C24.6647 2.92014 21.3765 2.66718 18.2407 2.66888ZM16.3879 10.6604C18.2464 12.7582 19.4076 14.8433 19.8347 16.5893L18.2913 19.9858L15.4223 17.3584C15.1856 15.6159 15.5062 13.3018 16.3879 10.6604ZM23.1619 15.2857C23.4025 17.1625 23.4175 18.865 23.2438 20.3165L20.1167 24.5987L19.4443 21.2746L21.5024 16.7457C22.0054 16.2572 22.5581 15.7691 23.1619 15.2857ZM13.6412 18.0281L17.9373 21.8081L18.5927 25.048L14.0966 22.3694C13.3289 21.074 11.7646 18.3307 11.8175 17.4698C13.5413 17.9614 13.3544 17.9206 13.6412 18.0281ZM25.5052 21.6237C25.6594 24.2146 25.2965 26.2596 24.6091 27.7051L21.2528 30.2163L20.5417 26.7001L23.3596 22.8418C24.0101 22.426 24.7258 22.0183 25.5052 21.6238V21.6237ZM12.7961 24.2251C13.3561 24.2666 13.894 24.3245 14.4079 24.3974L19.0164 27.1431L19.7071 30.5577L16.1928 29.713C14.9315 28.6763 13.7197 26.8574 12.7961 24.2251ZM26.8479 28.8574C26.0693 33.2138 24.2968 35.6617 22.4573 36.1705L21.6001 31.9331L24.9924 29.3945C25.6033 29.1901 26.2223 29.0109 26.8479 28.8574ZM38.3397 32.9691C38.7321 32.8191 39.2428 32.7359 39.7727 32.7355C40.9533 32.7355 41.9103 33.1385 41.9104 33.6356C41.9107 34.1327 40.9535 34.5358 39.7728 34.5358C38.663 34.5355 37.7383 34.1777 37.644 33.7121C36.3612 35.1399 35.0354 36.9153 33.7864 38.8335C33.306 39.5708 32.839 40.3313 32.3876 41.1008C33.4268 41.1697 34.1927 41.5467 34.1933 41.9896C34.1931 42.4867 33.2359 42.8897 32.0552 42.8896C31.8368 42.8895 31.6186 42.8749 31.4021 42.8457C29.6621 46.0485 28.2801 49.2701 27.6404 51.6733C29.4331 52.1256 31.2698 52.4802 33.1285 52.7471L33.1283 52.7494C33.1283 53.2465 34.0855 53.6494 35.266 53.6494C35.6922 53.6492 36.1084 53.5953 36.4611 53.4947C36.4524 53.5268 36.4478 53.5599 36.4476 53.5932C36.4476 54.0903 37.4048 54.4932 38.5852 54.4932C39.7659 54.4932 40.7229 54.0903 40.723 53.5932C40.7222 53.5123 40.6956 53.432 40.6437 53.3542C42.1439 53.3857 43.6447 53.3669 45.1436 53.2978C45.1243 53.3449 45.1142 53.3953 45.1138 53.4462C45.1138 53.9434 46.071 54.3463 47.2514 54.3463C48.432 54.3463 49.3891 53.9434 49.3893 53.4463C49.3886 53.2891 49.29 53.1347 49.1036 52.9985C49.9636 52.9082 50.8218 52.8011 51.6777 52.6772C52.0534 52.9645 52.7708 53.143 53.5499 53.1432C54.7308 53.1432 55.688 52.7401 55.6878 52.2429C55.6871 52.0856 55.5886 51.9312 55.402 51.7949C55.4078 50.51 55.0139 48.7177 54.265 46.7569C53.4875 44.7215 52.3684 42.4987 51.1048 40.3649C50.8565 40.4039 50.6056 40.4234 50.3543 40.4234C49.1736 40.4234 48.2165 40.0202 48.2167 39.5231C48.2178 39.0782 48.9911 38.7004 50.036 38.6341C48.5195 36.2776 46.8819 34.13 45.4428 32.5977C44.6813 31.7868 43.9719 31.1488 43.4042 30.7535C42.8364 30.3581 42.4075 30.2753 41.5402 30.5635C40.6729 30.8517 39.3489 31.9344 38.3397 32.9691ZM15.9739 31.288L20.0532 32.2685L20.8992 36.4512C19.052 36.4859 16.6231 34.9387 14.3072 31.5275C14.883 31.4233 15.4385 31.3447 15.9739 31.288ZM22.8225 37.603C23.153 39.6363 23.5593 41.6243 24.0693 43.5618L22.5472 43.9941C22.018 41.9894 21.599 39.9416 21.2603 37.8573L22.8225 37.603ZM37.7043 45.7834C38.885 45.7834 39.8421 46.1866 39.8419 46.6837C39.8419 47.1808 38.8848 47.5838 37.7043 47.5838C37.5773 47.5836 37.4503 47.5785 37.3237 47.5687C37.4619 47.6897 37.534 47.8222 37.5347 47.9566C37.5347 48.4537 36.5775 48.8566 35.3968 48.8566C34.2163 48.8566 33.2591 48.4537 33.2591 47.9566C33.2591 47.4595 34.2163 47.0566 35.3968 47.0566C35.5244 47.0568 35.6519 47.0618 35.7774 47.0715C35.6392 46.9505 35.567 46.818 35.5662 46.6837C35.566 46.1864 36.5235 45.7834 37.7043 45.7834ZM48.2859 47.5337C49.4666 47.5337 50.4237 47.9369 50.4235 48.4341C50.4235 48.9311 49.4664 49.3341 48.2859 49.3341C47.1052 49.3341 46.1481 48.9311 46.1479 48.4341C46.1477 47.9368 47.1049 47.5337 48.2859 47.5337ZM24.6333 53.7056C23.4525 53.7056 22.4954 54.1087 22.4956 54.6058C22.4956 55.1029 23.4528 55.5059 24.6332 55.5059C24.7931 55.5056 24.9529 55.4977 25.1121 55.4821C25.2806 55.9174 26.1735 56.2372 27.2211 56.2373C28.402 56.2373 29.3592 55.8343 29.3591 55.3371C29.359 54.84 28.4018 54.4371 27.2211 54.4371C27.0613 54.4374 26.9016 54.4453 26.7425 54.4608C26.574 54.0255 25.6811 53.7057 24.6332 53.7056H24.6333Z" fill="#ABDE66"/>
</svg>
