<svg width="58" height="58" viewBox="0 0 58 58" fill="none" xmlns="http://www.w3.org/2000/svg">
<path fill-rule="evenodd" clip-rule="evenodd" d="M41.0834 19.3333C41.0834 26.007 35.6736 31.4167 29 31.4167C22.3264 31.4167 16.9167 26.007 16.9167 19.3333C16.9167 12.6597 22.3264 7.25 29 7.25C35.6736 7.25 41.0834 12.6597 41.0834 19.3333ZM38.6667 19.3333C38.6667 21.8971 37.6482 24.3558 35.8354 26.1687C34.0225 27.9816 31.5638 29 29 29C26.4363 29 23.9775 27.9816 22.1647 26.1687C20.3518 24.3558 19.3334 21.8971 19.3334 19.3333C19.3334 16.7696 20.3518 14.3108 22.1647 12.498C23.9775 10.6851 26.4363 9.66667 29 9.66667C31.5638 9.66667 34.0225 10.6851 35.8354 12.498C37.6482 14.3108 38.6667 16.7696 38.6667 19.3333Z" fill="#ABDE66"/>
<path d="M47.125 29C47.125 30.8524 45.7632 32.2504 44.7083 33.0539V35.8887C44.8654 35.7449 45.0406 35.6156 45.2376 35.5057C46.9087 34.5704 49.0595 35.264 50.112 35.7135C50.3067 35.795 50.4695 35.9376 50.5759 36.1199C50.6823 36.3021 50.7264 36.5141 50.7017 36.7237C50.5772 37.822 50.1338 39.8895 48.5448 40.6278C47.2277 41.2404 45.7137 41.1208 44.7083 40.925V43.1387C44.8654 42.9949 45.0406 42.8656 45.2376 42.7557C46.9087 41.8216 49.0595 42.514 50.112 42.9635C50.3067 43.045 50.4695 43.1876 50.5759 43.3699C50.6823 43.5521 50.7264 43.7641 50.7017 43.9737C50.5772 45.072 50.1338 47.1395 48.5448 47.8778C47.2277 48.4904 45.7137 48.3708 44.7083 48.175V49.5417C44.7083 49.8621 44.581 50.1695 44.3544 50.3961C44.1278 50.6227 43.8205 50.75 43.5 50.75C43.1795 50.75 42.8722 50.6227 42.6456 50.3961C42.419 50.1695 42.2917 49.8621 42.2917 49.5417V48.1762C41.2863 48.3708 39.7723 48.4904 38.4552 47.8778C36.8663 47.1407 36.4216 45.072 36.2983 43.9737C36.2736 43.7641 36.3177 43.5521 36.4241 43.3699C36.5305 43.1876 36.6933 43.045 36.888 42.9635C37.9393 42.514 40.0901 41.8216 41.7624 42.7557C41.9594 42.8656 42.1358 42.9949 42.2917 43.1387V40.9262C41.2863 41.122 39.7723 41.2404 38.4552 40.629C36.8663 39.8919 36.4216 37.8232 36.2983 36.7249C36.2736 36.5153 36.3177 36.3033 36.4241 36.1211C36.5305 35.9388 36.6933 35.7962 36.888 35.7147C37.9393 35.2652 40.0901 34.5716 41.7624 35.5069C41.9594 35.6168 42.1358 35.7461 42.2917 35.8899V33.0552C41.2368 32.2504 39.875 30.8536 39.875 29.0012C39.875 26.7017 41.9751 25.1019 42.9792 24.4699C43.1348 24.3708 43.3155 24.3181 43.5 24.3181C43.6845 24.3181 43.8652 24.3708 44.0208 24.4699C45.0237 25.1007 47.125 26.7005 47.125 29ZM7.25 42.9417C7.25 39.0328 11.7088 36.6584 16.9167 35.3172V42.2917H15.7083C15.3879 42.2917 15.0805 42.419 14.8539 42.6456C14.6273 42.8722 14.5 43.1795 14.5 43.5V50.75H7.25V42.9417ZM29 43.5C24.7708 43.5 21.75 42.2917 21.75 42.2917H19.3333V34.7758C20.9328 34.4696 22.5456 34.2381 24.1667 34.0822V36.25C24.1667 36.8909 24.4213 37.5056 24.8745 37.9588C25.3277 38.412 25.9424 38.6667 26.5833 38.6667H31.4167C32.0595 38.6667 32.6443 38.4153 33.0769 38.0057C33.1168 38.1386 33.1591 38.2739 33.2038 38.4129C33.4292 39.1151 33.7289 39.7911 34.098 40.4296C34.1958 40.5939 34.3094 40.7728 34.4399 40.9577C34.0227 41.1982 33.6576 41.5195 33.3659 41.9026C33.0742 42.2858 32.8618 42.7233 32.741 43.1894C31.6704 43.3671 30.4017 43.5 29 43.5ZM29 45.9167C30.291 45.9159 31.5801 45.8161 32.8558 45.6182C32.938 45.9722 33.0515 46.406 33.2038 46.8712C33.3464 47.3014 33.5385 47.8113 33.7983 48.3333H16.9167V44.7083H21.3283L21.5422 44.7796C21.9482 44.9101 22.5221 45.0805 23.235 45.2484C25.1248 45.6908 27.0591 45.915 29 45.9167Z" fill="#ABDE66"/>
</svg>
