<svg width="58" height="58" viewBox="0 0 58 58" fill="none" xmlns="http://www.w3.org/2000/svg">
<g clip-path="url(#clip0_117_574)">
<path d="M44.4062 0H13.5938C6.08613 0 0 6.08613 0 13.5938V44.4062C0 51.9139 6.08613 58 13.5938 58H44.4062C51.9139 58 58 51.9139 58 44.4062V13.5938C58 6.08613 51.9139 0 44.4062 0Z" fill="url(#paint0_radial_117_574)"/>
<path d="M44.4062 0H13.5938C6.08613 0 0 6.08613 0 13.5938V44.4062C0 51.9139 6.08613 58 13.5938 58H44.4062C51.9139 58 58 51.9139 58 44.4062V13.5938C58 6.08613 51.9139 0 44.4062 0Z" fill="url(#paint1_radial_117_574)"/>
<path d="M29.002 6.34375C22.8491 6.34375 22.0767 6.37071 19.6602 6.48059C17.2482 6.59116 15.6018 6.97291 14.1613 7.5332C12.671 8.11184 11.407 8.88601 10.1477 10.1457C8.88737 11.4052 8.1132 12.6691 7.53275 14.1588C6.97088 15.5997 6.58866 17.2468 6.48014 19.6577C6.37207 22.0744 6.34375 22.847 6.34375 29.0002C6.34375 35.1534 6.37094 35.9233 6.48059 38.3398C6.59161 40.7518 6.97337 42.3982 7.5332 43.8387C8.1123 45.329 8.88646 46.593 10.1461 47.8523C11.4052 49.1126 12.6691 49.8886 14.1583 50.4673C15.6 51.0275 17.2466 51.4093 19.6581 51.5199C22.0749 51.6297 22.8466 51.6567 28.9993 51.6567C35.153 51.6567 35.9228 51.6297 38.3394 51.5199C40.7513 51.4093 42.3996 51.0275 43.8412 50.4673C45.3309 49.8886 46.593 49.1126 47.8518 47.8523C49.1122 46.593 49.8861 45.329 50.4668 43.8394C51.0237 42.3982 51.4061 40.7513 51.5194 38.3403C51.6279 35.9237 51.6562 35.1534 51.6562 29.0002C51.6562 22.847 51.6279 22.0749 51.5194 19.6581C51.4061 17.2462 51.0237 15.6 50.4668 14.1595C49.8861 12.6691 49.1122 11.4052 47.8518 10.1457C46.5917 8.88555 45.3313 8.11139 43.8398 7.53343C42.3955 6.97291 40.7482 6.59093 38.3362 6.48059C35.9194 6.37071 35.15 6.34375 28.995 6.34375H29.002ZM26.9695 10.4266C27.5729 10.4257 28.246 10.4266 29.002 10.4266C35.0515 10.4266 35.7683 10.4484 38.1572 10.5569C40.3662 10.658 41.5652 11.027 42.3638 11.3372C43.4212 11.7477 44.1749 12.2387 44.9674 13.0319C45.7604 13.8248 46.2511 14.58 46.6628 15.6373C46.973 16.4348 47.3425 17.6338 47.4431 19.8428C47.5516 22.2312 47.5752 22.9485 47.5752 28.995C47.5752 35.0415 47.5516 35.759 47.4431 38.1472C47.342 40.3562 46.973 41.5552 46.6628 42.3529C46.2523 43.4103 45.7604 44.1632 44.9674 44.9557C44.1745 45.7486 43.4216 46.2394 42.3638 46.6501C41.5661 46.9617 40.3662 47.3298 38.1572 47.4309C35.7688 47.5394 35.0515 47.5629 29.002 47.5629C22.9524 47.5629 22.2353 47.5394 19.8471 47.4309C17.6381 47.3289 16.4391 46.9598 15.6398 46.6497C14.5827 46.2389 13.8273 45.7482 13.0344 44.9552C12.2414 44.1622 11.7507 43.4089 11.339 42.3511C11.0288 41.5534 10.6593 40.3544 10.5587 38.1454C10.4502 35.757 10.4284 35.0397 10.4284 28.9894C10.4284 22.9392 10.4502 22.2256 10.5587 19.8371C10.6598 17.6281 11.0288 16.4292 11.339 15.6305C11.7498 14.5732 12.2414 13.818 13.0346 13.0251C13.8276 12.2321 14.5827 11.7411 15.6401 11.3297C16.4387 11.0182 17.6381 10.65 19.8471 10.5485C21.9371 10.454 22.7471 10.4257 26.9695 10.421V10.4266ZM41.0959 14.1885C39.595 14.1885 38.3772 15.4051 38.3772 16.9063C38.3772 18.4073 39.595 19.6251 41.0959 19.6251C42.5969 19.6251 43.8147 18.4073 43.8147 16.9063C43.8147 15.4053 42.5969 14.1876 41.0959 14.1876V14.1885ZM29.002 17.3651C22.5767 17.3651 17.3671 22.5747 17.3671 29.0002C17.3671 35.4258 22.5767 40.6329 29.002 40.6329C35.4276 40.6329 40.6353 35.4258 40.6353 29.0002C40.6353 22.5749 35.4271 17.3651 29.0016 17.3651H29.002ZM29.002 21.448C33.1728 21.448 36.5543 24.829 36.5543 29.0002C36.5543 33.171 33.1728 36.5525 29.002 36.5525C24.831 36.5525 21.45 33.171 21.45 29.0002C21.45 24.829 24.831 21.448 29.002 21.448Z" fill="white"/>
</g>
<defs>
<radialGradient id="paint0_radial_117_574" cx="0" cy="0" r="1" gradientUnits="userSpaceOnUse" gradientTransform="translate(15.4062 62.4671) rotate(-90) scale(57.4823 53.4631)">
<stop stop-color="#FFDD55"/>
<stop offset="0.1" stop-color="#FFDD55"/>
<stop offset="0.5" stop-color="#FF543E"/>
<stop offset="1" stop-color="#C837AB"/>
</radialGradient>
<radialGradient id="paint1_radial_117_574" cx="0" cy="0" r="1" gradientUnits="userSpaceOnUse" gradientTransform="translate(-9.71523 4.17804) rotate(78.681) scale(25.6949 105.915)">
<stop stop-color="#3771C8"/>
<stop offset="0.128" stop-color="#3771C8"/>
<stop offset="1" stop-color="#6600FF" stop-opacity="0"/>
</radialGradient>
<clipPath id="clip0_117_574">
<rect width="58" height="58" fill="white"/>
</clipPath>
</defs>
</svg>
