<svg width="58" height="58" viewBox="0 0 58 58" fill="none" xmlns="http://www.w3.org/2000/svg">
<g clip-path="url(#clip0_111_172)">
<path d="M46.8557 17.1929C46.8557 13.05 46.8557 8.90714 46.5657 6.17286C46.5679 5.50273 46.4075 4.84208 46.0983 4.24757C45.789 3.65306 45.3402 3.14244 44.7902 2.75952C44.2403 2.37659 43.6056 2.13279 42.9408 2.04902C42.2759 1.96525 41.6006 2.04402 40.9729 2.27857C32.0243 4.84714 13.7543 11.2686 6.09002 22.2886C-2.19569 33.9714 4.18431 47.3529 7.20859 52.5729C7.64923 53.3107 8.25054 53.9397 8.96779 54.4131C9.68505 54.8865 10.4998 55.1921 11.3515 55.3071C15.1661 55.9947 19.0623 56.1064 22.91 55.6386" stroke="#ABDE66" stroke-width="4" stroke-linecap="round" stroke-linejoin="round"/>
<path d="M20.7143 35.5457C16.5437 41.6917 12.6994 48.0529 9.19714 54.6029M44.2043 55.8043C43.7492 55.9688 43.2508 55.9688 42.7957 55.8043C39.3406 54.4356 36.376 52.0611 34.2857 48.9884C32.1954 45.9157 31.0756 42.2863 31.0714 38.57V30.9057C31.0765 30.6427 31.1348 30.3835 31.2428 30.1436C31.3508 29.9038 31.5063 29.6883 31.6999 29.5102C31.8935 29.3321 32.1211 29.1951 32.3691 29.1074C32.6171 29.0197 32.8803 28.9832 33.1429 29H53.8571C54.3593 29.0106 54.8379 29.2147 55.193 29.5699C55.5481 29.925 55.7523 30.4036 55.7629 30.9057V38.57C55.7719 42.2672 54.6766 45.8829 52.6172 48.9534C50.5578 52.024 47.6284 54.4096 44.2043 55.8043Z" stroke="#ABDE66" stroke-width="4" stroke-linecap="round" stroke-linejoin="round"/>
</g>
<defs>
<clipPath id="clip0_111_172">
<rect width="58" height="58" fill="white"/>
</clipPath>
</defs>
</svg>
