<svg width="20" height="20" viewBox="0 0 20 20" fill="none" xmlns="http://www.w3.org/2000/svg">
<g id="phone" clip-path="url(#clip0_2_356)">
<path id="Vector" d="M18.3333 14.0999V16.5999C18.3342 16.832 18.2867 17.0617 18.1937 17.2744C18.1008 17.487 17.9644 17.6779 17.7934 17.8348C17.6223 17.9917 17.4204 18.1112 17.2006 18.1855C16.9807 18.2599 16.7478 18.2875 16.5166 18.2666C13.9523 17.988 11.4891 17.1117 9.32497 15.7083C7.31149 14.4288 5.60442 12.7217 4.32497 10.7083C2.91662 8.53426 2.04017 6.05908 1.76664 3.48325C1.74581 3.25281 1.7732 3.02055 1.84705 2.80127C1.92091 2.58199 2.03961 2.38049 2.19561 2.2096C2.3516 2.03871 2.54147 1.90218 2.75313 1.80869C2.96478 1.7152 3.19359 1.6668 3.42497 1.66658H5.92497C6.32939 1.6626 6.72146 1.80582 7.0281 2.06953C7.33475 2.33324 7.53503 2.69946 7.59164 3.09992C7.69716 3.89997 7.89284 4.68552 8.17497 5.44158C8.28709 5.73985 8.31135 6.06401 8.24489 6.37565C8.17843 6.68729 8.02402 6.97334 7.79997 7.19992L6.74164 8.25825C7.92793 10.3445 9.65535 12.072 11.7416 13.2583L12.8 12.1999C13.0265 11.9759 13.3126 11.8215 13.6242 11.755C13.9359 11.6885 14.26 11.7128 14.5583 11.8249C15.3144 12.107 16.0999 12.3027 16.9 12.4083C17.3048 12.4654 17.6745 12.6693 17.9387 12.9812C18.203 13.2931 18.3434 13.6912 18.3333 14.0999Z" stroke="#045869" stroke-width="2" stroke-linecap="round" stroke-linejoin="round"/>
</g>
<defs>
<clipPath id="clip0_2_356">
<rect width="20" height="20" fill="white"/>
</clipPath>
</defs>
</svg>
