<svg width="58" height="59" viewBox="0 0 58 59" fill="none" xmlns="http://www.w3.org/2000/svg">
<g id="logos:whatsapp-icon" clip-path="url(#clip0_117_582)">
<path id="Vector" d="M1.23772 28.8766C1.23636 33.7878 2.51961 38.5833 4.95969 42.81L1.00436 57.2516L15.7835 53.3764C19.8712 55.6018 24.4512 56.7678 29.1054 56.7681H29.1176C44.4819 56.7681 56.9889 44.2657 56.9954 28.8986C56.9984 21.4522 54.1011 14.45 48.8371 9.18201C43.5741 3.91444 36.5745 1.01194 29.1165 1.00854C13.7503 1.00854 1.24429 13.5103 1.23795 28.8766" fill="url(#paint0_linear_117_582)"/>
<path id="Vector_2" d="M0.242422 28.8677C0.240836 33.9556 1.57008 38.9225 4.09716 43.3006L0 58.2599L15.3091 54.2459C19.5272 56.5457 24.2764 57.7583 29.109 57.7601H29.1214C45.037 57.7601 57.9932 44.8079 58 28.8908C58.0027 21.1768 55.0012 13.9229 49.5492 8.46619C44.0965 3.01011 36.8465 0.00317188 29.1214 0C13.2032 0 0.248766 12.9503 0.242422 28.8677ZM9.3593 42.5466L8.78768 41.6392C6.38476 37.8185 5.11646 33.4032 5.11827 28.8695C5.12348 15.6394 15.8906 4.87563 29.1305 4.87563C35.5422 4.87834 41.5679 7.37778 46.1 11.9127C50.632 16.448 53.1257 22.4768 53.1241 28.889C53.1183 42.1191 42.3509 52.8842 29.1214 52.8842H29.1119C24.8043 52.882 20.5796 51.7251 16.8952 49.539L16.0184 49.0191L6.93372 51.4009L9.3593 42.5464V42.5466Z" fill="url(#paint1_linear_117_582)"/>
<path id="Vector_3" d="M21.9036 16.7992C21.363 15.5977 20.7941 15.5735 20.2801 15.5524C19.8591 15.5343 19.3779 15.5357 18.8971 15.5357C18.4159 15.5357 17.6341 15.7167 16.9732 16.4383C16.3116 17.1606 14.4474 18.906 14.4474 22.456C14.4474 26.0063 17.0332 29.4371 17.3937 29.919C17.7546 30.4 22.3855 37.9182 29.7198 40.8105C35.8152 43.2141 37.0557 42.7361 38.3786 42.6155C39.7017 42.4955 42.6479 40.8706 43.249 39.1856C43.8505 37.5009 43.8505 36.0568 43.6702 35.755C43.4898 35.4544 43.0086 35.2738 42.287 34.9131C41.5652 34.5522 38.0176 32.8065 37.3563 32.5657C36.6948 32.3251 36.2138 32.205 35.7325 32.9275C35.2513 33.6489 33.8695 35.2738 33.4483 35.755C33.0276 36.2374 32.6064 36.2974 31.8851 35.9365C31.163 35.5744 28.8392 34.8134 26.0821 32.3554C23.937 30.4428 22.4888 28.0809 22.0679 27.3584C21.6469 26.637 22.0228 26.246 22.3846 25.8864C22.7088 25.5631 23.1064 25.0438 23.4676 24.6226C23.8274 24.2012 23.9474 23.9006 24.1881 23.4194C24.4289 22.9377 24.3084 22.5163 24.1282 22.1554C23.9474 21.7945 22.5452 18.2259 21.9036 16.7992Z" fill="white"/>
</g>
<defs>
<linearGradient id="paint0_linear_117_582" x1="2800.56" y1="5625.31" x2="2800.56" y2="1.00854" gradientUnits="userSpaceOnUse">
<stop stop-color="#1FAF38"/>
<stop offset="1" stop-color="#60D669"/>
</linearGradient>
<linearGradient id="paint1_linear_117_582" x1="2900" y1="5825.99" x2="2900" y2="0" gradientUnits="userSpaceOnUse">
<stop stop-color="#F9F9F9"/>
<stop offset="1" stop-color="white"/>
</linearGradient>
<clipPath id="clip0_117_582">
<rect width="58" height="58.4531" fill="white"/>
</clipPath>
</defs>
</svg>
